<?xml version="1.0" encoding="UTF-8" standalone="no"?>
<!DOCTYPE svg PUBLIC "-//W3C//DTD SVG 1.1//EN" "http://www.w3.org/Graphics/SVG/1.1/DTD/svg11.dtd">
<svg width="100%" height="100%" viewBox="0 0 96 75" version="1.1" xmlns="http://www.w3.org/2000/svg" xmlns:xlink="http://www.w3.org/1999/xlink" xml:space="preserve" xmlns:serif="http://www.serif.com/" style="fill-rule:evenodd;clip-rule:evenodd;stroke-linejoin:round;stroke-miterlimit:2;">
    <g transform="matrix(1,0,0,1,-52.111,-43.3763)">
        <g transform="matrix(0.992157,0,0,0.97685,26.2937,-738.601)">
            <g transform="matrix(0.220708,0,0,0.220708,-56.7113,698.4)">
                <path d="M767.107,494.587C775.264,500.545 777.309,502.454 786.752,511.79C800.801,525.678 815.353,554.25 809.177,585.325C756.222,544.355 690.609,522.37 622.99,521.039C690.609,532.031 753.227,562.674 803.853,608.636C795.521,626.961 786.858,644.609 775.877,661.591C742.566,611.298 689.944,576.329 630.654,564.671C687.282,585.991 734.236,625.63 764.219,678.252C754.225,693.904 743.232,706.228 732.905,714.891C715.257,677.587 685.939,645.94 648.969,625.63C680.282,653.605 704.93,688.247 721.247,726.549C709.589,738.207 696.6,749.188 682.944,757.852C679.617,725.218 665.297,693.904 642.979,669.922C659.295,700.57 666.628,736.199 664.631,770.841C644.31,786.504 621.658,798.828 597.683,807.813C543.058,779.837 501.422,731.873 481.771,673.915C510.418,713.56 548.72,744.862 593.018,766.848C612.674,767.514 620.993,748.523 617.666,710.221C604.011,638.619 543.723,601.648 438.139,600.317C425.815,599.646 414.157,606.307 408.827,617.965C403.165,628.958 405.5,642.612 413.492,651.608C398.506,645.94 385.511,634.282 379.521,619.296C373.188,604.31 373.188,587.322 380.187,572.33C395.838,547.017 421.816,530.035 450.463,525.37C463.452,522.37 477.107,524.039 489.431,528.704C495.426,538.359 507.084,542.358 518.077,539.69C528.737,536.696 537.062,527.367 537.728,515.714C541.727,511.05 548.055,507.384 554.05,506.053C543.058,505.387 532.397,508.715 524.073,515.714C512.414,510.384 498.76,511.715 488.433,518.376C477.107,516.38 464.783,516.38 453.796,518.376C479.109,488.399 515.742,471.411 555.381,470.08C627.66,461.755 708.037,451.435 767.107,494.587Z" style="fill:white;"/>
            </g>
        </g>
    </g>
</svg>
