<?xml version="1.0" encoding="UTF-8" standalone="no"?>
<!DOCTYPE svg PUBLIC "-//W3C//DTD SVG 1.1//EN" "http://www.w3.org/Graphics/SVG/1.1/DTD/svg11.dtd">
<svg width="100%" height="100%" viewBox="0 0 173 93" version="1.1" xmlns="http://www.w3.org/2000/svg" xmlns:xlink="http://www.w3.org/1999/xlink" xml:space="preserve" xmlns:serif="http://www.serif.com/" style="fill-rule:evenodd;clip-rule:evenodd;stroke-linejoin:round;stroke-miterlimit:2;">
    <g transform="matrix(1,0,0,1,-329.519,-1095.33)">
        <g transform="matrix(1,0,0,1,-0.549617,29.5357)">
            <g id="Orzelek" transform="matrix(0.844289,0,0,0.844289,-294.811,684.52)">
                <g transform="matrix(1,0,0,1,941.511,514.791)">
                    <path d="M0,-20.308C-7.338,-43.538 -36.271,-23.704 -50.259,-30.704C-50.542,-35.264 -44.741,-37.495 -42.227,-40.877C-39.041,-45.139 -38.709,-49.416 -41.053,-54.07C-47.49,-66.866 -61.601,-63.179 -72.712,-59.92C-86.646,-55.837 -130.067,-29.721 -141.35,-24.312C-168.822,-11.151 -199.369,-21.361 -201.385,-18.048C-193.335,-9.053 -172.553,-4.914 -161.954,-4.856C-167.161,-4.856 -172.256,-0.28 -199.637,-7.062C-200.559,4.827 -173.949,4.965 -166.737,4.843C-176.476,7.619 -186.611,5.194 -196.229,5.563C-186.178,18.349 -160.722,14.922 -146.708,12.86C-158.533,20.855 -171.264,27.725 -184.758,31.28C-183.728,36.266 -168.098,45.469 -162.527,45.946C-155.417,46.558 -147.074,29.479 -116.172,21.452C-106.473,18.692 -96.474,17.428 -86.541,14.583C-69.057,9.572 -53.21,2.796 -38.329,-7.712C-35.473,-9.736 -32.757,-10.749 -29.19,-11.151C-25.581,-11.553 -21.109,-11.917 -17.17,-11.724C-9.628,-11.347 -1.174,-14.843 1.716,-7.062C2.104,-11.325 6.294,-18.954 0,-20.308" style="fill:white;"/>
                </g>
                <g transform="matrix(1,0,0,1,914.038,450.77)">
                    <path d="M0,39.709C-2.546,40.01 -10.014,39.795 -10.902,36.874C-11.811,33.868 -6.606,30.848 -4.705,29.268C0.318,25.076 10.779,20.785 8.612,12.21C4.799,-2.86 -26.542,0.454 -36.698,3.1C-28.612,5.227 -7.146,5.673 -10.731,20.378C-12.166,26.242 -17.059,29.41 -21.604,32.397C-27.882,36.509 -27.479,42.092 -18.885,42.569" style="fill:white;"/>
                </g>
                <g transform="matrix(1,0,0,1,868.255,552.078)">
                    <path d="M0,-30.698C-1.8,-24.583 -16.943,-12.703 -8.578,-7.794C-4.448,-5.371 18.695,-11.949 11.875,0C9.12,-9.935 -5.13,-3.011 -12.459,-3.358C-14.549,-3.454 -17.492,-3.329 -18.337,-5.52C-19.646,-8.916 -15.205,-9.706 -14.838,-11.784C-13.781,-17.771 -21.474,-17.793 -20.027,-23.831" style="fill:white;"/>
                </g>
                <g transform="matrix(1,0,0,1,848.8,553.794)">
                    <path d="M0,-30.698C-1.799,-24.581 -16.949,-12.7 -8.585,-7.794C-4.449,-5.369 18.694,-11.951 11.874,0C9.118,-9.933 -5.136,-3.011 -12.465,-3.354C-14.555,-3.457 -17.497,-3.329 -18.345,-5.521C-19.649,-8.913 -15.205,-9.705 -14.841,-11.784C-13.781,-17.77 -21.477,-17.796 -20.03,-23.829" style="fill:white;"/>
                </g>
            </g>
        </g>
    </g>
</svg>
