<?xml version="1.0" encoding="UTF-8" standalone="no"?>
<!DOCTYPE svg PUBLIC "-//W3C//DTD SVG 1.1//EN" "http://www.w3.org/Graphics/SVG/1.1/DTD/svg11.dtd">
<svg width="100%" height="100%" viewBox="0 0 317 91" version="1.1" xmlns="http://www.w3.org/2000/svg" xmlns:xlink="http://www.w3.org/1999/xlink" xml:space="preserve" xmlns:serif="http://www.serif.com/" style="fill-rule:evenodd;clip-rule:evenodd;stroke-linejoin:round;stroke-miterlimit:2;">
    <g transform="matrix(1,0,0,1,-322.931,-247.034)">
        <g transform="matrix(1,0,0,1,612.303,309.827)">
            <path d="M0,-34.631C-1.057,-34.508 -2.061,-34.474 -2.961,-34.564C-1.966,-34.546 -0.975,-34.571 0,-34.631C6.759,-35.42 16.015,-40.192 19.365,-44.661C14.148,-42.764 8.015,-39.702 2.149,-39.66C14.657,-41.718 23.718,-51.599 27.585,-62.793C10.654,-41.455 -21.056,-41.545 -45.346,-44.095C-57.202,-45.34 -69.346,-48.619 -81.352,-46.249C-91.864,-44.174 -102.656,-37.382 -112.016,-32.376C-119.232,-28.515 -126.624,-26.833 -133.727,-24.334C-147.182,-24.041 -152.072,-28.459 -163.853,-35.113C-176.358,-42.178 -190.168,-42.413 -204.207,-41.102C-230.044,-38.677 -255.313,-29.822 -279.241,-43.326C-282.885,-45.386 -286.021,-48.067 -289.372,-50.541C-286.138,-37.262 -267.165,-29.948 -253.34,-29.336C-251.585,-29.423 -249.839,-29.474 -248.092,-29.451C-249.718,-29.288 -251.484,-29.253 -253.34,-29.336C-257.964,-29.114 -262.612,-28.663 -267.334,-28.773C-260.467,-19.46 -243.962,-22.65 -234.211,-24.336C-238.398,-23.299 -242.942,-22.551 -246.92,-21.272C-237.476,-16.993 -229.444,-20.997 -220.334,-22.037C-222.665,-19.346 -226.196,-17.677 -229.392,-16.485C-222.51,-13.953 -215.328,-16.545 -209.094,-18.935C-210.427,-16.69 -213.114,-15.352 -215.478,-14.075C-209.406,-13.987 -202.365,-14.022 -197,-16.94C-198.642,-14.95 -200.834,-13.436 -203.055,-11.883C-195.099,-12.048 -188.812,-13.545 -181.464,-15.48C-182.76,-13.615 -184.796,-11.835 -187.005,-10.605C-181.623,-10.423 -176.314,-11.961 -171.397,-14.181C-172.971,-13.193 -174.255,-11.63 -175.485,-10.588C-171.626,-11.301 -166.698,-12.005 -163.253,-14.001C-164.102,-13.27 -165.162,-11.414 -165.984,-10.605C-165.382,-10.501 -164.756,-10.435 -164.127,-10.39C-167.96,-7.401 -169.733,-3.858 -166.902,0.312C-171.163,3.481 -168.167,8.144 -164.004,9.167C-167.836,0.975 -144.099,-5.913 -140.662,4.31C-139.236,8.562 -143.235,16.381 -146.894,18.776C-151.226,21.615 -160.294,17.583 -162.866,23.192C-156.429,21.823 -147.427,22.114 -141.35,25.558C-141.298,25.438 -141.258,25.305 -141.192,25.191C-141.725,24.314 -142.186,23.122 -142.762,22.41C-140.964,20.449 -139.22,17.825 -137.74,15.928C-137.06,18.366 -136.479,20.759 -135.666,23.192C-138.171,22.563 -140.16,23.358 -141.192,25.191C-141.009,25.49 -140.819,25.755 -140.614,25.949C-140.847,25.802 -141.109,25.695 -141.35,25.558C-141.607,26.11 -141.802,26.723 -141.886,27.426C-135.594,24.526 -131.615,28.162 -125.221,26.629C-129.194,25.88 -130.685,22.289 -127.184,19.05C-124.365,21.032 -123.668,24.028 -123.588,27.414C-114.591,26.835 -108.838,25.26 -100.893,21.806C-95.194,19.327 -84.903,17.954 -80.719,13.097C-90.71,7.273 -101.178,-0.848 -103.708,-12.72C-96.543,-11.001 -89.038,-7.841 -81.394,-10.605C-82.139,-11.166 -82.784,-12.094 -84.035,-12.685C-78.743,-11.34 -71.576,-10.64 -66.091,-11.317C-66.663,-12.168 -66.931,-13.819 -67.913,-14.912C-63.446,-12.988 -58.665,-13.445 -53.836,-13.345C-55.103,-14.323 -56.103,-16.045 -57.157,-16.924C-52.383,-15.833 -47.707,-15.412 -42.699,-15.715C-43.482,-16.402 -44.33,-17.83 -45.288,-18.568C-39.287,-16.751 -32.91,-16.766 -26.615,-17.176C-28.142,-17.898 -30.827,-19.816 -32.305,-20.578C-24.913,-18.485 -15.921,-16.912 -8.513,-20.504C-12.465,-22.001 -16.826,-20.804 -20.453,-22.913C-13.025,-22.662 -4.429,-20.219 2.438,-24.374C-2.744,-24.292 -8.063,-23.592 -12.423,-26.566C-3.741,-26.421 1.351,-27.71 8.979,-30.948C4.937,-30.881 -1.348,-30.912 -4.018,-30.912C5.958,-30.57 13.018,-34.133 20.132,-40.295C13.626,-37.422 7.047,-35.063 0,-34.631" style="fill:white;"/>
        </g>
    </g>
</svg>
